<?xml version="1.0" encoding="UTF-8" standalone="no"?>
<!-- Creator: CorelDRAW X8 -->

<svg
   xmlns:dc="http://purl.org/dc/elements/1.1/"
   xmlns:cc="http://creativecommons.org/ns#"
   xmlns:rdf="http://www.w3.org/1999/02/22-rdf-syntax-ns#"
   xmlns:svg="http://www.w3.org/2000/svg"
   xmlns="http://www.w3.org/2000/svg"
   xmlns:sodipodi="http://sodipodi.sourceforge.net/DTD/sodipodi-0.dtd"
   xmlns:inkscape="http://www.inkscape.org/namespaces/inkscape"
   xml:space="preserve"
   width="9146.374"
   height="1277.0216"
   version="1.1"
   style="clip-rule:evenodd;fill-rule:evenodd;image-rendering:optimizeQuality;shape-rendering:geometricPrecision;text-rendering:geometricPrecision"
   viewBox="0 0 258131 36040.387"
   id="svg3336"
   inkscape:version="0.91 r13725"
   sodipodi:docname="logo.svg"><metadata
   id="metadata3352"><rdf:RDF><cc:Work
       rdf:about=""><dc:format>image/svg+xml</dc:format><dc:type
         rdf:resource="http://purl.org/dc/dcmitype/StillImage" /><dc:title></dc:title></cc:Work></rdf:RDF></metadata><sodipodi:namedview
   pagecolor="#ffffff"
   bordercolor="#666666"
   borderopacity="1"
   objecttolerance="10"
   gridtolerance="10"
   guidetolerance="10"
   inkscape:pageopacity="0"
   inkscape:pageshadow="2"
   inkscape:window-width="1536"
   inkscape:window-height="811"
   id="namedview3350"
   showgrid="false"
   showguides="true"
   inkscape:guide-bbox="true"
   inkscape:zoom="0.059831111"
   inkscape:cx="5321.6102"
   inkscape:cy="-737.54536"
   inkscape:window-x="-8"
   inkscape:window-y="-8"
   inkscape:window-maximized="1"
   inkscape:current-layer="g4788"
   fit-margin-top="0"
   fit-margin-left="0"
   fit-margin-right="0"
   fit-margin-bottom="0"
   units="px" />
 <defs
   id="defs3338"><style
     type="text/css"
     id="style3340">
   <![CDATA[
    .fil1 {fill:#D20000}
    .fil0 {fill:#D20000;fill-rule:nonzero}
   ]]>
  </style></defs>
 <g
   id="Слой_x0020_1"
   style="fill:#d20000;fill-opacity:1"
   transform="translate(-45722,-41824.614)">
  <metadata
   id="CorelCorpID_0Corel-Layer" />
  
  
  
 <g
   id="g4788"><g
     id="g4851"><path
       class="fil1"
       d="m 171139,61484.146 -5708,0 -209,2657.486 -1711,0 139,-1770.106 c 38,-489.455 -441,-887.38 -1074,-887.38 l -3423,0 104,-1327.192 c 76,-976.584 -884,-1769.331 -2144,-1769.331 l -5710,0 105,-1330.295 4569,0 c 314,0 583,-196.248 602,-442.139 l 70,-885.053 c 19,-244.34 -219,-442.915 -533,-442.915 l -14842,0 c -317,0 -586,198.575 -605,442.915 l -69,885.053 c -19,245.891 218,442.139 536,442.139 l 4566,0 -104,1330.295 -4567,0 c -1259,0 -2347,792.747 -2423,1769.331 l -3423,0 c -631,0 -1172,395.597 -1211,885.053 l -407,5192.416 -2285,0 397,-5065.204 37,-473.942 c 20,-246.667 -221,-442.914 -535,-442.914 l -1373,0 c -317,0 -585,196.247 -605,442.914 l -278,3541.764 -347,4426.042 -355,4524.554 c -19,243.564 219,440.587 536,440.587 l 1372,0 c 314,0 586,-197.023 605,-440.587 l 25,-318.805 400,-5095.456 2285,0 -410,5221.892 c -38,489.455 440,885.053 1071,885.053 l 5138,0 4824,3984.679 15981,0 c 1262,0 2346,-793.523 2423,-1770.107 l 139,-1771.657 1711,0 -208,2656.711 5708,0 c 0,0 1885,-2214.573 2319,-7746.737 435,-5533.716 -1103,-7749.064 -1103,-7749.064 z m -25349,2424.006 c 339,-265.283 1841,-273.04 2182,0 -94,1204.634 -189,2409.269 -283,3613.903 -561,231.929 -1741,200.126 -2182,0 94,-1204.634 189,-2409.269 283,-3613.903 z m 6874,0 c 338,-265.283 1840,-273.04 2182,0 -94,1204.634 -189,2409.269 -283,3613.903 -561,231.929 -1741,200.126 -2183,0 95,-1204.634 189,-2409.269 284,-3613.903 z m -9948,5287.825 c 2270,1398.555 4588,2102.098 6957,2104.425 2376,1.552 4852,-699.665 7430,-2110.63 535,-30.252 1372,762.495 1116,1288.407 -2952,1616.522 -5842,2419.353 -8671,2417.026 -2836,-2.327 -5561,-812.139 -8174,-2423.231 -131,-405.682 795,-1273.67 1342,-1275.997 z m 25635,6012.312 -1715,0 209,-2655.16 -5137,0 c -629,0 -1172,395.598 -1211,885.053 l -208,2656.711 -15410,0 -4825,-3983.903 -4566,0 799,-10183.93 3423,0 c 634,0 1175,-395.598 1213,-885.053 l 69,-885.053 15983,0 -174,2214.572 c -38,487.904 441,885.053 1072,885.053 l 3423,0 -139,1770.107 c -38,489.455 443,885.053 1072,885.053 l 5137,0 208,-2654.384 1714,0 c 0,0 933,2654.384 671,5989.817 -259,3305.957 -1608,5961.117 -1608,5961.117 z"
       id="path3346"
       style="fill:#d20000;fill-opacity:1"
       inkscape:connector-curvature="0" /><path
       class="fil0"
       d="m 47318,59620.957 c 997,-135.744 2100,-242.013 3310,-318.029 1210,-76.793 2417,-114.801 3620,-114.801 1225,0 2455,72.138 3688,216.415 1234,144.277 2329,432.831 3285,865.661 957,432.055 1717,1034.76 2281,1806.564 565,772.579 790,1794.928 674,3067.047 -101,1120.085 -461,2074.174 -1079,2863.818 -618,788.869 -1404,1429.582 -2356,1921.365 -952,491.782 -2019,852.474 -3199,1081.3 -1180,229.602 -2382,343.628 -3607,343.628 -110,0 -296,0 -558,0 -263,0 -541,-3.879 -836,-12.411 -294,-8.533 -572,-20.944 -833,-38.009 -261,-17.065 -456,-34.13 -586,-51.195 l -544,6006.882 -4856,0 1596,-17638.235 z m 6959,2876.229 c -460,0 -903,8.533 -1331,24.822 -428,17.065 -776,51.195 -1043,102.39 l -479,5294.031 c 86,17.065 226,33.354 422,50.419 195,17.065 402,30.252 620,38.784 218,8.533 419,16.289 604,24.822 186,8.532 333,13.186 442,13.186 635,0 1272,-34.13 1913,-101.614 640,-68.26 1216,-212.537 1729,-432.831 512,-221.069 938,-522.034 1279,-903.669 341,-381.636 540,-895.137 599,-1539.729 49,-542.978 -54,-980.462 -308,-1310.903 -255,-331.216 -609,-589.518 -1062,-776.458 -453,-186.939 -978,-314.151 -1573,-381.635 -596,-68.26 -1200,-101.615 -1812,-101.615 z m 9724,5854.073 c 132,-1459.834 491,-2766.082 1077,-3920.297 585,-1153.439 1368,-2124.593 2347,-2914.238 979,-788.868 2144,-1390.798 3494,-1806.563 1350,-415.766 2856,-623.649 4519,-623.649 1772,0 3299,224.948 4582,674.068 1283,449.896 2330,1082.077 3142,1896.543 813,814.466 1391,1790.274 1737,2926.648 346,1137.15 456,2392.98 332,3767.488 -132,1459.058 -497,2765.307 -1093,3919.522 -597,1153.439 -1390,2125.369 -2380,2914.237 -991,788.869 -2161,1390.798 -3511,1806.564 -1350,415.766 -2845,623.648 -4486,623.648 -1772,0 -3299,-224.947 -4582,-674.067 -1283,-449.896 -2330,-1082.077 -3142,-1896.543 -813,-814.466 -1386,-1790.274 -1721,-2926.649 -334,-1137.15 -439,-2392.979 -315,-3766.712 z m 5152,0 c -80,881.951 -44,1687.884 109,2417.801 153,729.141 424,1357.444 814,1883.356 390,525.913 916,933.146 1579,1221.7 663,288.553 1465,432.83 2405,432.83 1729,0 3115,-458.428 4161,-1374.508 1045,-916.081 1665,-2443.399 1858,-4581.179 77,-848.596 50,-1637.465 -81,-2367.382 -131,-729.916 -396,-1361.322 -796,-1896.542 -400,-534.445 -931,-950.211 -1594,-1246.521 -662,-297.087 -1485,-446.018 -2470,-446.018 -1706,0 -3083,475.494 -4132,1425.704 -1048,950.211 -1666,2460.464 -1853,4530.759 z m 33995,8144.662 c -758,390.168 -1735,674.068 -2932,852.475 -1198,177.631 -2420,266.834 -3667,266.834 -1465,0 -2855,-169.098 -4170,-508.847 -1315,-338.973 -2458,-881.951 -3429,-1628.932 -972,-746.207 -1711,-1704.95 -2217,-2876.23 -507,-1170.504 -685,-2587.675 -534,-4249.962 156,-1731.322 638,-3185.726 1445,-4365.539 807,-1179.036 1789,-2129.247 2948,-2850.631 1159,-721.385 2421,-1242.643 3784,-1565.327 1364,-321.908 2691,-483.25 3982,-483.25 1421,0 2613,67.485 3574,203.229 961,135.744 1751,297.086 2368,484.026 l -1237,3155.474 c -530,-186.163 -1158,-321.908 -1883,-407.233 -725,-84.549 -1645,-127.212 -2761,-127.212 -984,0 -1887,123.334 -2708,369.225 -820,245.891 -1537,615.116 -2151,1107.674 -613,491.783 -1112,1110.777 -1497,1857.759 -384,746.206 -622,1620.4 -713,2621.805 -79,881.951 -10,1687.884 208,2417.801 218,729.141 588,1357.444 1109,1883.356 521,525.913 1207,933.146 2055,1221.7 849,288.553 1853,432.83 3013,432.83 1072,0 1981,-76.792 2728,-229.602 746,-152.033 1415,-347.505 2005,-584.864 l 680,3003.441 z m 17079,0 c -758,390.168 -1735,674.068 -2932,852.475 -1198,177.631 -2420,266.834 -3667,266.834 -1465,0 -2855,-169.098 -4170,-508.847 -1315,-338.973 -2458,-881.951 -3429,-1628.932 -972,-746.207 -1711,-1704.95 -2217,-2876.23 -507,-1170.504 -685,-2587.675 -534,-4249.962 156,-1731.322 638,-3185.726 1445,-4365.539 807,-1179.036 1789,-2129.247 2948,-2850.631 1159,-721.385 2421,-1242.643 3784,-1565.327 1364,-321.908 2691,-483.25 3982,-483.25 1421,0 2613,67.485 3574,203.229 961,135.744 1751,297.086 2368,484.026 l -1237,3155.474 c -530,-186.163 -1158,-321.908 -1883,-407.233 -725,-84.549 -1645,-127.212 -2761,-127.212 -984,0 -1887,123.334 -2708,369.225 -820,245.891 -1537,615.116 -2151,1107.674 -613,491.783 -1112,1110.777 -1497,1857.759 -384,746.206 -622,1620.4 -713,2621.805 -79,881.951 -10,1687.884 208,2417.801 218,729.141 588,1357.444 1109,1883.356 521,525.913 1207,933.146 2055,1221.7 849,288.553 1853,432.83 3013,432.83 1072,0 1981,-76.792 2728,-229.602 746,-152.033 1415,-347.505 2005,-584.864 l 680,3003.441 z m 80461,-8170.259 859,-3690.696 -197,0 -1829,2799.437 -5917,6642.941 -1509,0 -5040,-6668.539 -1294,-2748.241 -196,0 359,3639.5 -811,8959.128 -4593,0 1612,-17816.642 4397,0 5884,8221.455 1070,1959.373 164,0 1264,-2010.568 7073,-8170.26 4364,0 -1613,17816.642 -4856,0 809,-8933.53 z m 6642,25.597 c 132,-1459.834 491,-2766.082 1076,-3920.297 586,-1153.439 1369,-2124.593 2348,-2914.238 979,-788.868 2144,-1390.798 3494,-1806.563 1350,-415.766 2856,-623.649 4519,-623.649 1772,0 3299,224.948 4582,674.068 1282,449.896 2330,1082.077 3142,1896.543 812,814.466 1391,1790.274 1737,2926.648 345,1137.15 456,2392.98 332,3767.488 -132,1459.058 -497,2765.307 -1093,3919.522 -597,1153.439 -1390,2125.369 -2381,2914.237 -990,788.869 -2160,1390.798 -3510,1806.564 -1350,415.766 -2845,623.648 -4486,623.648 -1772,0 -3299,-224.947 -4582,-674.067 -1283,-449.896 -2330,-1082.077 -3143,-1896.543 -812,-814.466 -1385,-1790.274 -1720,-2926.649 -334,-1137.15 -440,-2392.979 -315,-3766.712 z m 5151,0 c -79,881.951 -43,1687.884 110,2417.801 152,729.141 424,1357.444 814,1883.356 390,525.913 916,933.146 1579,1221.7 663,288.553 1465,432.83 2405,432.83 1728,0 3115,-458.428 4161,-1374.508 1045,-916.081 1665,-2443.399 1858,-4581.179 77,-848.596 50,-1637.465 -81,-2367.382 -131,-729.916 -396,-1361.322 -796,-1896.542 -401,-534.445 -932,-950.211 -1594,-1246.521 -662,-297.087 -1485,-446.018 -2470,-446.018 -1706,0 -3083,475.494 -4132,1425.704 -1048,950.211 -1666,2460.464 -1854,4530.759 z m 34649,-5599.649 -7285,0 -1313,14507.582 -4856,0 1313,-14507.582 -7284,0 299,-3309.06 19425,0 -299,3309.06 z m -1869,5599.649 c 132,-1459.834 491,-2766.082 1077,-3920.297 586,-1153.439 1368,-2124.593 2347,-2914.238 979,-788.868 2144,-1390.798 3494,-1806.563 1350,-415.766 2857,-623.649 4519,-623.649 1772,0 3299,224.948 4582,674.068 1283,449.896 2330,1082.077 3143,1896.543 812,814.466 1391,1790.274 1736,2926.648 346,1137.15 456,2392.98 332,3767.488 -132,1459.058 -496,2765.307 -1093,3919.522 -597,1153.439 -1390,2125.369 -2380,2914.237 -990,788.869 -2160,1390.798 -3511,1806.564 -1350,415.766 -2845,623.648 -4486,623.648 -1772,0 -3299,-224.947 -4582,-674.067 -1282,-449.896 -2330,-1082.077 -3142,-1896.543 -812,-814.466 -1386,-1790.274 -1720,-2926.649 -335,-1137.15 -440,-2392.979 -316,-3766.712 z m 5152,0 c -80,881.951 -44,1687.884 109,2417.801 153,729.141 424,1357.444 814,1883.356 390,525.913 916,933.146 1579,1221.7 663,288.553 1465,432.83 2406,432.83 1728,0 3115,-458.428 4160,-1374.508 1046,-916.081 1665,-2443.399 1858,-4581.179 77,-848.596 50,-1637.465 -81,-2367.382 -130,-729.916 -396,-1361.322 -796,-1896.542 -400,-534.445 -931,-950.211 -1593,-1246.521 -663,-297.087 -1486,-446.018 -2470,-446.018 -1706,0 -3084,475.494 -4132,1425.704 -1049,950.211 -1667,2460.464 -1854,4530.759 z m 18656,-8730.302 c 997,-135.744 2100,-242.013 3311,-318.029 1210,-76.793 2416,-114.801 3619,-114.801 1225,0 2455,72.138 3689,216.415 1233,144.277 2328,432.831 3284,865.661 957,432.055 1717,1034.76 2281,1806.564 565,772.579 790,1794.928 674,3067.047 -101,1120.085 -461,2074.174 -1079,2863.818 -618,788.869 -1404,1429.582 -2356,1921.365 -952,491.782 -2018,852.474 -3199,1081.3 -1180,229.602 -2382,343.628 -3607,343.628 -110,0 -296,0 -558,0 -263,0 -541,-3.879 -836,-12.411 -294,-8.533 -572,-20.944 -833,-38.009 -261,-17.065 -456,-34.13 -586,-51.195 l -544,6006.882 -4856,0 1596,-17638.235 z m 6959,2876.229 c -459,0 -903,8.533 -1331,24.822 -428,17.065 -776,51.195 -1043,102.39 l -479,5294.031 c 86,17.065 226,33.354 422,50.419 195,17.065 402,30.252 620,38.784 218,8.533 419,16.289 604,24.822 186,8.532 333,13.186 442,13.186 635,0 1272,-34.13 1913,-101.614 640,-68.26 1217,-212.537 1729,-432.831 512,-221.069 938,-522.034 1279,-903.669 341,-381.636 540,-895.137 599,-1539.729 49,-542.978 -54,-980.462 -308,-1310.903 -255,-331.216 -608,-589.518 -1062,-776.458 -453,-186.939 -978,-314.151 -1573,-381.635 -596,-68.26 -1200,-101.615 -1812,-101.615 z m 26673,13998.735 c -757,390.168 -1734,674.068 -2932,852.475 -1197,177.631 -2419,266.834 -3666,266.834 -1466,0 -2856,-169.098 -4171,-508.847 -1314,-338.973 -2457,-881.951 -3429,-1628.932 -971,-746.207 -1710,-1704.95 -2217,-2876.23 -506,-1170.504 -684,-2587.675 -534,-4249.962 157,-1731.322 638,-3185.726 1445,-4365.539 807,-1179.036 1790,-2129.247 2949,-2850.631 1159,-721.385 2420,-1242.643 3784,-1565.327 1363,-321.908 2690,-483.25 3981,-483.25 1422,0 2613,67.485 3575,203.229 961,135.744 1750,297.086 2367,484.026 l -1237,3155.474 c -530,-186.163 -1157,-321.908 -1882,-407.233 -726,-84.549 -1646,-127.212 -2762,-127.212 -984,0 -1886,123.334 -2707,369.225 -821,245.891 -1538,615.116 -2151,1107.674 -613,491.783 -1112,1110.777 -1497,1857.759 -385,746.206 -623,1620.4 -713,2621.805 -80,881.951 -11,1687.884 207,2417.801 219,729.141 589,1357.444 1110,1883.356 521,525.913 1206,933.146 2055,1221.7 849,288.553 1853,432.83 3012,432.83 1072,0 1981,-76.792 2728,-229.602 747,-152.033 1415,-347.505 2005,-584.864 l 680,3003.441 z"
       id="path3348"
       style="fill:#d20000;fill-opacity:1;fill-rule:nonzero"
       inkscape:connector-curvature="0" /><g
       id="flowRoot4758"
       style="font-style:normal;font-weight:normal;font-size:60px;line-height:125%;font-family:sans-serif;letter-spacing:0px;word-spacing:0px;fill:#d20000;fill-opacity:1;stroke:none;stroke-width:1px;stroke-linecap:butt;stroke-linejoin:miter;stroke-opacity:1"
       transform="matrix(36.714726,0,0,38.553241,-13905.035,-7577.8906)"><path
         id="path4797"
         style="font-style:normal;font-variant:normal;font-weight:normal;font-stretch:normal;font-size:287.5px;font-family:'PT Sans';-inkscape-font-specification:'PT Sans';fill:#d20000;fill-opacity:1"
         d="m 1774.468,1477.7724 q -8.625,6.6125 -21.85,9.2 -13.225,2.5875 -28.175,2.5875 -18.1125,0 -33.925,-6.0375 -15.8125,-6.325 -27.6,-18.975 -11.7875,-12.65 -18.6875,-32.2 -6.9,-19.8375 -6.9,-46.8625 0,-28.175 7.475,-47.725 7.7625,-19.8375 20.125,-32.2 12.65,-12.65 28.175,-18.4 15.525,-5.75 31.625,-5.75 17.25,0 28.175,2.0125 10.925,1.725 18.6875,4.8875 l -5.75,20.9875 q -13.8,-6.6125 -39.3875,-6.6125 -11.7875,0 -23.2875,4.3125 -11.5,4.3125 -20.7,14.0875 -8.9125,9.775 -14.375,25.5875 -5.4625,15.8125 -5.4625,38.8125 0,20.7 5.175,36.225 5.175,15.525 14.0875,25.875 9.2,10.35 21.275,15.525 12.3625,5.175 26.7375,5.175 12.9375,0 22.425,-2.5875 9.775,-2.5875 16.3875,-6.6125 l 5.75,18.6875 z"
         inkscape:connector-curvature="0" /><path
         id="path4799"
         style="font-style:normal;font-variant:normal;font-weight:normal;font-stretch:normal;font-size:287.5px;font-family:'PT Sans';-inkscape-font-specification:'PT Sans';fill:#d20000;fill-opacity:1"
         d="m 1902.1629,1474.6099 q -8.625,6.9 -21.85,10.925 -12.9375,4.025 -27.6,4.025 -16.3875,0 -28.4625,-5.175 -12.075,-5.4625 -19.8375,-15.2375 -7.7625,-10.0625 -11.5,-23.8625 -3.7375,-13.8 -3.7375,-31.05 0,-36.8 16.3875,-56.0625 16.3875,-19.2625 46.8625,-19.2625 9.775,0 19.55,2.3 9.775,2.0125 17.5375,8.05 7.7625,6.0375 12.65,17.25 4.8875,10.925 4.8875,29.0375 0,9.4875 -1.725,20.9875 l -92.2875,0 q 0,12.65 2.5875,22.425 2.5875,9.775 8.05,16.675 5.4625,6.6125 14.0875,10.35 8.9125,3.45 21.5625,3.45 9.775,0 19.55,-3.45 9.775,-3.45 14.6625,-8.05 l 8.625,16.675 z m -49.45,-115.575 q -16.9625,0 -27.3125,8.9125 -10.0625,8.9125 -12.075,30.475 l 71.3,0 q 0,-21.85 -8.3375,-30.475 -8.3375,-8.9125 -23.575,-8.9125 z"
         inkscape:connector-curvature="0" /><path
         id="path4801"
         style="font-style:normal;font-variant:normal;font-weight:normal;font-stretch:normal;font-size:287.5px;font-family:'PT Sans';-inkscape-font-specification:'PT Sans';fill:#d20000;fill-opacity:1"
         d="m 1943.2215,1342.3599 15.8125,0 4.3125,17.25 1.15,0 q 6.6125,-10.0625 16.9625,-15.2375 10.6375,-5.4625 24.15,-5.4625 28.75,0 42.8375,16.9625 14.0875,16.9625 14.0875,55.4875 0,18.1125 -4.8875,32.775 -4.6,14.375 -13.225,24.4375 -8.625,10.0625 -20.9875,15.525 -12.075,5.4625 -27.025,5.4625 -10.6375,0 -16.9625,-1.4375 -6.0375,-1.15 -13.225,-4.3125 l 0,59.8 -23,0 0,-201.25 z m 58.075,16.675 q -14.6625,0 -23.2875,7.7625 -8.3375,7.475 -11.7875,23 l 0,71.3 q 5.175,4.025 11.7875,6.325 6.6125,2.0125 17.5375,2.0125 19.8375,0 31.3375,-14.6625 11.7875,-14.95 11.7875,-43.7 0,-11.7875 -2.0125,-21.275 -2.0125,-9.775 -6.6125,-16.3875 -4.3125,-6.9 -11.5,-10.6375 -6.9,-3.7375 -17.25,-3.7375 z"
         inkscape:connector-curvature="0" /><path
         id="path4803"
         style="font-style:normal;font-variant:normal;font-weight:normal;font-stretch:normal;font-size:287.5px;font-family:'PT Sans';-inkscape-font-specification:'PT Sans';fill:#d20000;fill-opacity:1"
         d="m 2185.9838,1362.4849 -45.1375,0 0,123.625 -23,0 0,-123.625 -45.1375,0 0,-20.125 113.275,0 0,20.125 z"
         inkscape:connector-curvature="0" /><path
         id="path4805"
         style="font-style:normal;font-variant:normal;font-weight:normal;font-stretch:normal;font-size:287.5px;font-family:'PT Sans';-inkscape-font-specification:'PT Sans';fill:#d20000;fill-opacity:1"
         d="m 2298.5221,1401.0099 0.8625,-17.825 -0.8625,0 -11.7875,18.4 -64.6875,84.525 -13.225,0 0,-143.75 23,0 0,87.6875 -0.8625,16.9625 1.15,0 11.2125,-17.825 64.6875,-86.825 13.5125,0 0,143.75 -23,0 0,-85.1 z"
         inkscape:connector-curvature="0" /><path
         id="path4807"
         style="font-style:normal;font-variant:normal;font-weight:normal;font-stretch:normal;font-size:287.5px;font-family:'PT Sans';-inkscape-font-specification:'PT Sans';fill:#d20000;fill-opacity:1"
         d="m 2430.7361,1487.2599 q -4.8875,1.725 -10.35,2.0125 -5.175,0.2875 -9.4875,0.2875 -26.1625,0 -40.25,-18.4 -14.0875,-18.4 -14.0875,-56.925 0,-36.8 15.525,-55.4875 15.525,-18.6875 44.85,-18.6875 8.05,0 13.8,1.15 l 0,-56.35 21.85,0 0,56.6375 q 5.175,-0.8625 9.2,-1.15 4.025,-0.2875 7.7625,-0.2875 28.4625,0 42.8375,16.675 14.375,16.3875 14.375,54.625 0,18.1125 -4.025,32.775 -3.7375,14.375 -11.2125,24.4375 -7.475,10.0625 -18.4,15.525 -10.6375,5.4625 -24.725,5.4625 -2.5875,0 -7.7625,-0.575 -4.8875,-0.2875 -8.05,-1.4375 l 0,56.0625 -21.85,0 0,-56.35 z m 34.5,-128.225 q -3.45,0 -6.325,0.2875 -2.5875,0 -6.6125,1.15 l 0,109.25 q 2.875,0.575 6.325,0.8625 3.7375,0 8.05,0 18.4,0 27.6,-15.2375 9.4875,-15.2375 9.4875,-43.9875 0,-24.4375 -8.625,-38.2375 -8.3375,-14.0875 -29.9,-14.0875 z m -48.5875,111.55 q 3.45,0 6.9,-0.2875 3.45,-0.2875 7.475,-1.15 l 0,-108.9625 q -3.45,-0.575 -6.6125,-0.8625 -2.875,-0.2875 -7.1875,-0.2875 -17.825,0 -27.8875,13.5125 -9.775,13.225 -9.775,41.6875 0,12.075 2.0125,22.425 2.3,10.35 6.9,18.1125 4.6,7.475 11.5,11.7875 7.1875,4.025 16.675,4.025 z"
         inkscape:connector-curvature="0" /><path
         id="path4809"
         style="font-style:normal;font-variant:normal;font-weight:normal;font-stretch:normal;font-size:287.5px;font-family:'PT Sans';-inkscape-font-specification:'PT Sans';fill:#d20000;fill-opacity:1"
         d="m 2651.1588,1401.0099 0.8625,-17.825 -0.8625,0 -11.7875,18.4 -64.6875,84.525 -13.225,0 0,-143.75 23,0 0,87.6875 -0.8625,16.9625 1.15,0 11.2125,-17.825 64.6875,-86.825 13.5125,0 0,143.75 -23,0 0,-85.1 z"
         inkscape:connector-curvature="0" /><path
         id="path4811"
         style="font-style:normal;font-variant:normal;font-weight:normal;font-stretch:normal;font-size:287.5px;font-family:'PT Sans';-inkscape-font-specification:'PT Sans';fill:#d20000;fill-opacity:1"
         d="m 2847.7729,1522.6224 -15.525,0 -4.3125,-36.5125 -109.25,0 0,-143.75 23,0 0,123.625 62.3875,0 0,-123.625 23,0 0,123.625 20.7,0 0,56.6375 z"
         inkscape:connector-curvature="0" /><path
         id="path4813"
         style="font-style:normal;font-variant:normal;font-weight:normal;font-stretch:normal;font-size:287.5px;font-family:'PT Sans';-inkscape-font-specification:'PT Sans';fill:#d20000;fill-opacity:1"
         d="m 2966.1734,1401.0099 0.8625,-17.825 -0.8625,0 -11.7875,18.4 -64.6875,84.525 -13.225,0 0,-143.75 23,0 0,87.6875 -0.8625,16.9625 1.15,0 11.2125,-17.825 64.6875,-86.825 13.5125,0 0,143.75 -23,0 0,-85.1 z"
         inkscape:connector-curvature="0" /><path
         id="path4815"
         style="font-style:normal;font-variant:normal;font-weight:normal;font-stretch:normal;font-size:287.5px;font-family:'PT Sans';-inkscape-font-specification:'PT Sans';fill:#d20000;fill-opacity:1"
         d="m 3033.7,1342.3599 15.8125,0 4.3125,17.25 1.15,0 q 6.6125,-10.0625 16.9625,-15.2375 10.6375,-5.4625 24.15,-5.4625 28.75,0 42.8375,16.9625 14.0875,16.9625 14.0875,55.4875 0,18.1125 -4.8875,32.775 -4.6,14.375 -13.225,24.4375 -8.625,10.0625 -20.9875,15.525 -12.075,5.4625 -27.025,5.4625 -10.6375,0 -16.9625,-1.4375 -6.0375,-1.15 -13.225,-4.3125 l 0,59.8 -23,0 0,-201.25 z m 58.075,16.675 q -14.6625,0 -23.2875,7.7625 -8.3375,7.475 -11.7875,23 l 0,71.3 q 5.175,4.025 11.7875,6.325 6.6125,2.0125 17.5375,2.0125 19.8375,0 31.3375,-14.6625 11.7875,-14.95 11.7875,-43.7 0,-11.7875 -2.0125,-21.275 -2.0125,-9.775 -6.6125,-16.3875 -4.3125,-6.9 -11.5,-10.6375 -6.9,-3.7375 -17.25,-3.7375 z"
         inkscape:connector-curvature="0" /><path
         id="path4817"
         style="font-style:normal;font-variant:normal;font-weight:normal;font-stretch:normal;font-size:287.5px;font-family:'PT Sans';-inkscape-font-specification:'PT Sans';fill:#d20000;fill-opacity:1"
         d="m 3181.192,1414.2349 q 0,-36.5125 16.1,-55.775 16.3875,-19.55 46.8625,-19.55 16.1,0 27.8875,5.4625 12.075,5.175 19.8375,15.2375 7.7625,9.775 11.5,23.8625 3.7375,13.8 3.7375,30.7625 0,36.5125 -16.3875,56.0625 -16.1,19.2625 -46.575,19.2625 -16.1,0 -28.175,-5.175 -11.7875,-5.4625 -19.55,-15.2375 -7.7625,-10.0625 -11.5,-23.8625 -3.7375,-14.0875 -3.7375,-31.05 z m 23.8625,0 q 0,10.925 2.0125,20.9875 2.3,10.0625 6.9,17.5375 4.6,7.475 12.075,12.075 7.475,4.6 18.1125,4.6 39.1,0.2875 39.1,-55.2 0,-11.2125 -2.3,-21.275 -2.0125,-10.0625 -6.6125,-17.5375 -4.6,-7.475 -12.075,-11.7875 -7.475,-4.6 -18.1125,-4.6 -39.1,-0.2875 -39.1,55.2 z"
         inkscape:connector-curvature="0" /><path
         id="path4819"
         style="font-style:normal;font-variant:normal;font-weight:normal;font-stretch:normal;font-size:287.5px;font-family:'PT Sans';-inkscape-font-specification:'PT Sans';fill:#d20000;fill-opacity:1"
         d="m 3343.0994,1342.6474 q 10.0625,-0.575 20.9875,-1.4375 11.2125,-0.8625 27.6,-0.8625 28.4625,0 40.825,8.9125 12.3625,8.625 12.3625,26.45 0,10.0625 -6.0375,19.8375 -5.75,9.4875 -19.2625,14.0875 l 0,1.15 q 16.9625,3.1625 23.8625,11.7875 6.9,8.625 6.9,23 0,22.425 -16.1,32.4875 -16.1,10.0625 -48.3,10.0625 -12.075,0 -22.425,-0.8625 -10.35,-0.575 -20.4125,-1.4375 l 0,-143.175 z m 23,124.2 q 5.4625,0.575 10.6375,0.8625 5.4625,0.2875 12.65,0.2875 19.2625,0 28.4625,-5.4625 9.4875,-5.4625 9.4875,-18.6875 0,-10.35 -8.05,-16.675 -7.7625,-6.6125 -27.8875,-6.6125 l -25.3,0 0,46.2875 z m 28.175,-63.825 q 5.175,0 10.0625,-1.725 4.8875,-1.725 8.625,-4.6 4.025,-3.1625 6.325,-7.1875 2.5875,-4.025 2.5875,-8.625 0,-11.5 -6.9,-15.8125 -6.9,-4.6 -24.15,-4.6 -9.2,0 -14.6625,0.2875 -5.175,0.2875 -10.0625,0.575 l 0,41.6875 28.175,0 z"
         inkscape:connector-curvature="0" /><path
         id="path4821"
         style="font-style:normal;font-variant:normal;font-weight:normal;font-stretch:normal;font-size:287.5px;font-family:'PT Sans';-inkscape-font-specification:'PT Sans';fill:#d20000;fill-opacity:1"
         d="m 3483.9879,1352.9974 q 10.925,-6.6125 25.3,-9.775 14.6625,-3.1625 30.475,-3.1625 14.95,0 23.8625,4.025 9.2,4.025 13.8,10.6375 4.8875,6.325 6.325,14.0875 1.725,7.7625 1.725,15.525 0,17.25 -0.8625,33.6375 -0.8625,16.3875 -0.8625,31.05 0,10.6375 0.8625,20.125 0.8625,9.4875 3.1625,17.5375 l -16.9625,0 -6.0375,-20.125 -1.4375,0 q -2.5875,4.025 -6.6125,8.05 -3.7375,3.7375 -9.2,6.9 -5.4625,2.875 -12.65,4.8875 -7.1875,2.0125 -16.3875,2.0125 -9.2,0 -17.25,-2.875 -7.7625,-2.875 -13.5125,-8.05 -5.75,-5.4625 -9.2,-12.9375 -3.1625,-7.475 -3.1625,-16.9625 0,-12.65 5.175,-20.9875 5.175,-8.625 14.375,-13.5125 9.4875,-5.175 22.425,-7.1875 13.225,-2.3 29.0375,-2.3 4.025,0 7.7625,0 4.025,0 8.05,0.575 0.8625,-8.625 0.8625,-15.525 0,-15.8125 -6.325,-22.1375 -6.325,-6.325 -23,-6.325 -4.8875,0 -10.6375,0.8625 -5.4625,0.575 -11.5,2.0125 -5.75,1.15 -11.2125,3.1625 -5.175,1.725 -9.2,4.025 l -7.1875,-17.25 z m 40.825,115.2875 q 8.05,0 14.375,-2.0125 6.325,-2.3 10.925,-5.4625 4.6,-3.45 7.475,-7.475 3.1625,-4.025 4.6,-7.7625 l 0,-23.8625 q -4.025,-0.2875 -8.3375,-0.2875 -4.025,-0.2875 -8.05,-0.2875 -8.9125,0 -17.5375,1.15 -8.3375,0.8625 -14.95,3.7375 -6.325,2.5875 -10.35,7.475 -3.7375,4.6 -3.7375,11.7875 0,10.0625 7.1875,16.675 7.1875,6.325 18.4,6.325 z"
         inkscape:connector-curvature="0" /><path
         id="path4823"
         style="font-style:normal;font-variant:normal;font-weight:normal;font-stretch:normal;font-size:287.5px;font-family:'PT Sans';-inkscape-font-specification:'PT Sans';fill:#d20000;fill-opacity:1"
         d="m 3716.8898,1422.5724 -64.975,0 0,63.5375 -23,0 0,-143.75 23,0 0,60.0875 64.975,0 0,-60.0875 23,0 0,143.75 -23,0 0,-63.5375 z"
         inkscape:connector-curvature="0" /><path
         id="path4825"
         style="font-style:normal;font-variant:normal;font-weight:normal;font-stretch:normal;font-size:287.5px;font-family:'PT Sans';-inkscape-font-specification:'PT Sans';fill:#d20000;fill-opacity:1"
         d="m 3871.8703,1422.5724 -64.975,0 0,63.5375 -23,0 0,-143.75 23,0 0,60.0875 64.975,0 0,-60.0875 23,0 0,143.75 -23,0 0,-63.5375 z"
         inkscape:connector-curvature="0" /><path
         id="path4827"
         style="font-style:normal;font-variant:normal;font-weight:normal;font-stretch:normal;font-size:287.5px;font-family:'PT Sans';-inkscape-font-specification:'PT Sans';fill:#d20000;fill-opacity:1"
         d="m 3961.8758,1465.9849 q 10.6375,1.725 20.4125,1.725 18.1125,0 25.3,-6.9 7.1875,-7.1875 7.1875,-20.125 0,-11.5 -7.1875,-18.975 -6.9,-7.475 -24.4375,-7.475 -4.8875,0 -10.6375,0.2875 -5.75,0.2875 -10.6375,1.725 l 0,49.7375 z m 0,-68.7125 q 6.9,-1.15 13.225,-1.4375 6.325,-0.575 12.075,-0.575 14.6625,0 24.4375,3.45 10.0625,3.1625 16.1,8.9125 6.0375,5.75 8.3375,13.8 2.5875,7.7625 2.5875,16.675 0,26.1625 -14.6625,37.95 -14.375,11.7875 -46.8625,11.7875 -18.4,0 -38.2375,-1.725 l 0,-143.75 23,0 0,54.9125 z m 99.475,-54.9125 23,0 0,143.75 -23,0 0,-143.75 z"
         inkscape:connector-curvature="0" /><path
         id="path4829"
         style="font-style:normal;font-variant:normal;font-weight:normal;font-stretch:normal;font-size:287.5px;font-family:'PT Sans';-inkscape-font-specification:'PT Sans';fill:#d20000;fill-opacity:1"
         d="m 4218.3707,1401.0099 0.8625,-17.825 -0.8625,0 -11.7875,18.4 -64.6875,84.525 -13.225,0 0,-143.75 23,0 0,87.6875 -0.8625,16.9625 1.15,0 11.2125,-17.825 64.6875,-86.825 13.5125,0 0,143.75 -23,0 0,-85.1 z m -56.6375,-116.725 q 2.875,13.225 9.775,18.4 7.1875,5.175 16.3875,5.175 9.2,0 16.3875,-5.4625 7.1875,-5.4625 9.775,-17.825 l 17.25,5.4625 q -2.5875,16.675 -14.95,25.5875 -12.075,8.9125 -29.0375,8.9125 -7.7625,0 -15.525,-2.0125 -7.475,-2.0125 -13.5125,-6.0375 -6.0375,-4.025 -10.35,-10.35 -4.3125,-6.325 -5.75,-14.95 l 19.55,-6.9 z"
         inkscape:connector-curvature="0" /><path
         id="path4831"
         style="font-style:normal;font-variant:normal;font-weight:normal;font-stretch:normal;font-size:287.5px;font-family:'PT Sans';-inkscape-font-specification:'PT Sans';fill:#d20000;fill-opacity:1"
         d="m 4360.526,1352.9974 q 10.925,-6.6125 25.3,-9.775 14.6625,-3.1625 30.475,-3.1625 14.95,0 23.8625,4.025 9.2,4.025 13.8,10.6375 4.8875,6.325 6.325,14.0875 1.725,7.7625 1.725,15.525 0,17.25 -0.8625,33.6375 -0.8625,16.3875 -0.8625,31.05 0,10.6375 0.8625,20.125 0.8625,9.4875 3.1625,17.5375 l -16.9625,0 -6.0375,-20.125 -1.4375,0 q -2.5875,4.025 -6.6125,8.05 -3.7375,3.7375 -9.2,6.9 -5.4625,2.875 -12.65,4.8875 -7.1875,2.0125 -16.3875,2.0125 -9.2,0 -17.25,-2.875 -7.7625,-2.875 -13.5125,-8.05 -5.75,-5.4625 -9.2,-12.9375 -3.1625,-7.475 -3.1625,-16.9625 0,-12.65 5.175,-20.9875 5.175,-8.625 14.375,-13.5125 9.4875,-5.175 22.425,-7.1875 13.225,-2.3 29.0375,-2.3 4.025,0 7.7625,0 4.025,0 8.05,0.575 0.8625,-8.625 0.8625,-15.525 0,-15.8125 -6.325,-22.1375 -6.325,-6.325 -23,-6.325 -4.8875,0 -10.6375,0.8625 -5.4625,0.575 -11.5,2.0125 -5.75,1.15 -11.2125,3.1625 -5.175,1.725 -9.2,4.025 l -7.1875,-17.25 z m 40.825,115.2875 q 8.05,0 14.375,-2.0125 6.325,-2.3 10.925,-5.4625 4.6,-3.45 7.475,-7.475 3.1625,-4.025 4.6,-7.7625 l 0,-23.8625 q -4.025,-0.2875 -8.3375,-0.2875 -4.025,-0.2875 -8.05,-0.2875 -8.9125,0 -17.5375,1.15 -8.3375,0.8625 -14.95,3.7375 -6.325,2.5875 -10.35,7.475 -3.7375,4.6 -3.7375,11.7875 0,10.0625 7.1875,16.675 7.1875,6.325 18.4,6.325 z"
         inkscape:connector-curvature="0" /><path
         id="path4833"
         style="font-style:normal;font-variant:normal;font-weight:normal;font-stretch:normal;font-size:287.5px;font-family:'PT Sans';-inkscape-font-specification:'PT Sans';fill:#d20000;fill-opacity:1"
         d="m 4505.4529,1342.6474 q 10.0625,-0.575 20.9875,-1.4375 11.2125,-0.8625 27.6,-0.8625 28.4625,0 40.825,8.9125 12.3625,8.625 12.3625,26.45 0,10.0625 -6.0375,19.8375 -5.75,9.4875 -19.2625,14.0875 l 0,1.15 q 16.9625,3.1625 23.8625,11.7875 6.9,8.625 6.9,23 0,22.425 -16.1,32.4875 -16.1,10.0625 -48.3,10.0625 -12.075,0 -22.425,-0.8625 -10.35,-0.575 -20.4125,-1.4375 l 0,-143.175 z m 23,124.2 q 5.4625,0.575 10.6375,0.8625 5.4625,0.2875 12.65,0.2875 19.2625,0 28.4625,-5.4625 9.4875,-5.4625 9.4875,-18.6875 0,-10.35 -8.05,-16.675 -7.7625,-6.6125 -27.8875,-6.6125 l -25.3,0 0,46.2875 z m 28.175,-63.825 q 5.175,0 10.0625,-1.725 4.8875,-1.725 8.625,-4.6 4.025,-3.1625 6.325,-7.1875 2.5875,-4.025 2.5875,-8.625 0,-11.5 -6.9,-15.8125 -6.9,-4.6 -24.15,-4.6 -9.2,0 -14.6625,0.2875 -5.175,0.2875 -10.0625,0.575 l 0,41.6875 28.175,0 z"
         inkscape:connector-curvature="0" /><path
         id="path4835"
         style="font-style:normal;font-variant:normal;font-weight:normal;font-stretch:normal;font-size:287.5px;font-family:'PT Sans';-inkscape-font-specification:'PT Sans';fill:#d20000;fill-opacity:1"
         d="m 4740.3539,1362.4849 -45.1375,0 0,123.625 -23,0 0,-123.625 -45.1375,0 0,-20.125 113.275,0 0,20.125 z"
         inkscape:connector-curvature="0" /><path
         id="path4837"
         style="font-style:normal;font-variant:normal;font-weight:normal;font-stretch:normal;font-size:287.5px;font-family:'PT Sans';-inkscape-font-specification:'PT Sans';fill:#d20000;fill-opacity:1"
         d="m 4750.65,1414.2349 q 0,-36.5125 16.1,-55.775 16.3875,-19.55 46.8625,-19.55 16.1,0 27.8875,5.4625 12.075,5.175 19.8375,15.2375 7.7625,9.775 11.5,23.8625 3.7375,13.8 3.7375,30.7625 0,36.5125 -16.3875,56.0625 -16.1,19.2625 -46.575,19.2625 -16.1,0 -28.175,-5.175 -11.7875,-5.4625 -19.55,-15.2375 -7.7625,-10.0625 -11.5,-23.8625 -3.7375,-14.0875 -3.7375,-31.05 z m 23.8625,0 q 0,10.925 2.0125,20.9875 2.3,10.0625 6.9,17.5375 4.6,7.475 12.075,12.075 7.475,4.6 18.1125,4.6 39.1,0.2875 39.1,-55.2 0,-11.2125 -2.3,-21.275 -2.0125,-10.0625 -6.6125,-17.5375 -4.6,-7.475 -12.075,-11.7875 -7.475,-4.6 -18.1125,-4.6 -39.1,-0.2875 -39.1,55.2 z"
         inkscape:connector-curvature="0" /><path
         id="path4839"
         style="font-style:normal;font-variant:normal;font-weight:normal;font-stretch:normal;font-size:287.5px;font-family:'PT Sans';-inkscape-font-specification:'PT Sans';fill:#d20000;fill-opacity:1"
         d="m 5010.5949,1476.6224 q -8.625,6.325 -20.4125,9.4875 -11.7875,3.45 -24.725,3.45 -16.675,0 -28.175,-5.175 -11.5,-5.4625 -18.975,-15.2375 -7.1875,-10.0625 -10.6375,-23.8625 -3.1625,-14.0875 -3.1625,-31.05 0,-36.5125 16.1,-55.775 16.1,-19.55 46.2875,-19.55 13.8,0 23.2875,2.3 9.775,2.0125 17.5375,6.0375 l -6.6125,19.8375 q -6.6125,-3.7375 -14.6625,-5.75 -8.05,-2.3 -17.25,-2.3 -40.825,0 -40.825,55.2 0,10.925 2.0125,20.9875 2.3,9.775 7.1875,17.5375 5.175,7.475 13.225,12.075 8.3375,4.6 20.4125,4.6 10.35,0 18.4,-3.1625 8.3375,-3.1625 13.5125,-7.1875 l 7.475,17.5375 z"
         inkscape:connector-curvature="0" /><path
         id="path4841"
         style="font-style:normal;font-variant:normal;font-weight:normal;font-stretch:normal;font-size:287.5px;font-family:'PT Sans';-inkscape-font-specification:'PT Sans';fill:#d20000;fill-opacity:1"
         d="m 5140.4686,1474.6099 q -8.625,6.9 -21.85,10.925 -12.9375,4.025 -27.6,4.025 -16.3875,0 -28.4625,-5.175 -12.075,-5.4625 -19.8375,-15.2375 -7.7625,-10.0625 -11.5,-23.8625 -3.7375,-13.8 -3.7375,-31.05 0,-36.8 16.3875,-56.0625 16.3875,-19.2625 46.8625,-19.2625 9.775,0 19.55,2.3 9.775,2.0125 17.5375,8.05 7.7625,6.0375 12.65,17.25 4.8875,10.925 4.8875,29.0375 0,9.4875 -1.725,20.9875 l -92.2875,0 q 0,12.65 2.5875,22.425 2.5875,9.775 8.05,16.675 5.4625,6.6125 14.0875,10.35 8.9125,3.45 21.5625,3.45 9.775,0 19.55,-3.45 9.775,-3.45 14.6625,-8.05 l 8.625,16.675 z m -49.45,-115.575 q -16.9625,0 -27.3125,8.9125 -10.0625,8.9125 -12.075,30.475 l 71.3,0 q 0,-21.85 -8.3375,-30.475 -8.3375,-8.9125 -23.575,-8.9125 z"
         inkscape:connector-curvature="0" /><path
         id="path4843"
         style="font-style:normal;font-variant:normal;font-weight:normal;font-stretch:normal;font-size:287.5px;font-family:'PT Sans';-inkscape-font-specification:'PT Sans';fill:#d20000;fill-opacity:1"
         d="m 5181.5271,1342.3599 15.8125,0 4.3125,17.25 1.15,0 q 6.6125,-10.0625 16.9625,-15.2375 10.6375,-5.4625 24.15,-5.4625 28.75,0 42.8375,16.9625 14.0875,16.9625 14.0875,55.4875 0,18.1125 -4.8875,32.775 -4.6,14.375 -13.225,24.4375 -8.625,10.0625 -20.9875,15.525 -12.075,5.4625 -27.025,5.4625 -10.6375,0 -16.9625,-1.4375 -6.0375,-1.15 -13.225,-4.3125 l 0,59.8 -23,0 0,-201.25 z m 58.075,16.675 q -14.6625,0 -23.2875,7.7625 -8.3375,7.475 -11.7875,23 l 0,71.3 q 5.175,4.025 11.7875,6.325 6.6125,2.0125 17.5375,2.0125 19.8375,0 31.3375,-14.6625 11.7875,-14.95 11.7875,-43.7 0,-11.7875 -2.0125,-21.275 -2.0125,-9.775 -6.6125,-16.3875 -4.3125,-6.9 -11.5,-10.6375 -6.9,-3.7375 -17.25,-3.7375 z"
         inkscape:connector-curvature="0" /><path
         id="path4845"
         style="font-style:normal;font-variant:normal;font-weight:normal;font-stretch:normal;font-size:287.5px;font-family:'PT Sans';-inkscape-font-specification:'PT Sans';fill:#d20000;fill-opacity:1"
         d="m 5337.0691,1342.6474 q 10.0625,-0.575 20.9875,-1.4375 11.2125,-0.8625 27.6,-0.8625 28.4625,0 40.825,8.9125 12.3625,8.625 12.3625,26.45 0,10.0625 -6.0375,19.8375 -5.75,9.4875 -19.2625,14.0875 l 0,1.15 q 16.9625,3.1625 23.8625,11.7875 6.9,8.625 6.9,23 0,22.425 -16.1,32.4875 -16.1,10.0625 -48.3,10.0625 -12.075,0 -22.425,-0.8625 -10.35,-0.575 -20.4125,-1.4375 l 0,-143.175 z m 23,124.2 q 5.4625,0.575 10.6375,0.8625 5.4625,0.2875 12.65,0.2875 19.2625,0 28.4625,-5.4625 9.4875,-5.4625 9.4875,-18.6875 0,-10.35 -8.05,-16.675 -7.7625,-6.6125 -27.8875,-6.6125 l -25.3,0 0,46.2875 z m 28.175,-63.825 q 5.175,0 10.0625,-1.725 4.8875,-1.725 8.625,-4.6 4.025,-3.1625 6.325,-7.1875 2.5875,-4.025 2.5875,-8.625 0,-11.5 -6.9,-15.8125 -6.9,-4.6 -24.15,-4.6 -9.2,0 -14.6625,0.2875 -5.175,0.2875 -10.0625,0.575 l 0,41.6875 28.175,0 z"
         inkscape:connector-curvature="0" /><path
         id="path4847"
         style="font-style:normal;font-variant:normal;font-weight:normal;font-stretch:normal;font-size:287.5px;font-family:'PT Sans';-inkscape-font-specification:'PT Sans';fill:#d20000;fill-opacity:1"
         d="m 5569.9576,1401.0099 0.8625,-17.825 -0.8625,0 -11.7875,18.4 -64.6875,84.525 -13.225,0 0,-143.75 23,0 0,87.6875 -0.8625,16.9625 1.15,0 11.2125,-17.825 64.6875,-86.825 13.5125,0 0,143.75 -23,0 0,-85.1 z"
         inkscape:connector-curvature="0" /><path
         id="path4849"
         style="font-style:normal;font-variant:normal;font-weight:normal;font-stretch:normal;font-size:287.5px;font-family:'PT Sans';-inkscape-font-specification:'PT Sans';fill:#d20000;fill-opacity:1"
         d="m 5735.5217,1476.6224 q -8.625,6.325 -20.4125,9.4875 -11.7875,3.45 -24.725,3.45 -16.675,0 -28.175,-5.175 -11.5,-5.4625 -18.975,-15.2375 -7.1875,-10.0625 -10.6375,-23.8625 -3.1625,-14.0875 -3.1625,-31.05 0,-36.5125 16.1,-55.775 16.1,-19.55 46.2875,-19.55 13.8,0 23.2875,2.3 9.775,2.0125 17.5375,6.0375 l -6.6125,19.8375 q -6.6125,-3.7375 -14.6625,-5.75 -8.05,-2.3 -17.25,-2.3 -40.825,0 -40.825,55.2 0,10.925 2.0125,20.9875 2.3,9.775 7.1875,17.5375 5.175,7.475 13.225,12.075 8.3375,4.6 20.4125,4.6 10.35,0 18.4,-3.1625 8.3375,-3.1625 13.5125,-7.1875 l 7.475,17.5375 z"
         inkscape:connector-curvature="0" /></g></g></g></g>
</svg>